<svg width="4731" height="2745" viewBox="0 0 4731 2745" fill="none" xmlns="http://www.w3.org/2000/svg">
<path d="M2203.87 0.517578H2805.1C3056.76 0.517578 3260.46 205.141 3260.46 456.48V2288.88C3260.46 2540.88 3056.1 2744.84 2805.1 2744.84H2203.87V0.517578Z" fill="#F4F9F8"/>
<path fill-rule="evenodd" clip-rule="evenodd" d="M1676.22 2548.76H1007.31V196.576H1676.22C1890.43 196.576 2063.9 402.516 2063.9 656.486V2089.51C2063.9 2343.48 1890.43 2549.42 1676.22 2549.42V2548.76Z" fill="#F4F9F8"/>
<path fill-rule="evenodd" clip-rule="evenodd" d="M4219.79 682.832C3939.22 507.158 3606.08 397.938 3400.41 397.938V2348.11C3606.08 2348.11 3939.22 2238.89 4219.79 2061.9C4500.37 1886.23 4731.01 1642.13 4731.01 1373.03C4731.01 1103.92 4501.03 859.821 4219.79 682.832ZM3967.47 1199.98C3886.65 1199.98 3821.6 1122.34 3821.6 1026.94C3821.6 931.538 3886.65 853.9 3967.47 853.9C4048.29 853.9 4112.03 931.538 4112.03 1026.94C4112.03 1122.34 4046.98 1199.98 3967.47 1199.98Z" fill="#78FFF0"/>
<path fill-rule="evenodd" clip-rule="evenodd" d="M0 2042.8V702.551C282.546 702.551 914.005 1002.58 914.005 1372.35C914.005 1742.12 282.546 2042.15 0 2042.15V2042.8Z" fill="#78FFF0"/>
</svg>
